<svg width="182" height="52" viewBox="0 0 182 52" fill="none" xmlns="http://www.w3.org/2000/svg">
<path d="M60.7915 33.091V12.8677H57.4753V33.091H60.7915Z" fill="#110229"/>
<path d="M62.8213 26.3497C62.8213 30.4814 65.5938 33.417 69.807 33.417C74.0202 33.417 76.7927 30.4814 76.7927 26.3497C76.7927 22.2181 74.0202 19.2825 69.807 19.2825C65.5938 19.2825 62.8213 22.2181 62.8213 26.3497ZM66.1647 26.3497C66.1647 23.9306 67.6053 22.2453 69.807 22.2453C72.0087 22.2453 73.4494 23.9306 73.4494 26.3497C73.4494 28.7417 72.0087 30.4542 69.807 30.4542C67.6053 30.4542 66.1647 28.7417 66.1647 26.3497Z" fill="#110229"/>
<path d="M77.908 26.0781C77.908 29.9923 80.4359 32.8192 84.2141 32.8192C86.1712 32.8192 87.8565 32.0309 88.6991 30.7262V33.0095C88.6991 35.2112 87.3129 36.679 85.0024 36.679C82.9366 36.679 81.5231 35.6733 81.3329 33.9065H77.9895C78.4244 37.4129 81.1154 39.6962 84.8121 39.6962C89.1612 39.6962 91.9338 36.8421 91.9338 32.4115V19.6632H88.9981L88.8079 21.4844C87.9924 20.0709 86.3071 19.2283 84.3229 19.2283C80.4902 19.2283 77.908 22.1367 77.908 26.0781ZM81.2785 25.9965C81.2785 23.7676 82.692 22.1367 84.785 22.1367C87.0682 22.1367 88.5904 23.7948 88.5904 25.9965C88.5904 28.2255 87.0682 29.9379 84.785 29.9379C82.7191 29.9379 81.2785 28.2526 81.2785 25.9965Z" fill="#110229"/>
<path d="M93.575 26.3497C93.575 30.4814 96.3475 33.417 100.561 33.417C104.774 33.417 107.546 30.4814 107.546 26.3497C107.546 22.2181 104.774 19.2825 100.561 19.2825C96.3475 19.2825 93.575 22.2181 93.575 26.3497ZM96.9183 26.3497C96.9183 23.9306 98.3589 22.2453 100.561 22.2453C102.762 22.2453 104.203 23.9306 104.203 26.3497C104.203 28.7417 102.762 30.4542 100.561 30.4542C98.3589 30.4542 96.9183 28.7417 96.9183 26.3497Z" fill="#110229"/>
<path d="M111.135 16.9177C112.223 16.9177 113.12 16.0479 113.12 14.9334C113.12 13.8461 112.223 12.9763 111.135 12.9763C110.021 12.9763 109.178 13.8461 109.178 14.9334C109.178 16.0479 110.021 16.9177 111.135 16.9177ZM109.477 33.0909H112.793V19.663H109.477V33.0909Z" fill="#110229"/>
<path d="M115.698 39.3156H118.933V31.2426C119.776 32.6288 121.597 33.4443 123.609 33.4443C127.577 33.4443 129.942 30.3999 129.888 26.2139C129.806 22.0007 127.387 19.2554 123.581 19.2554C121.543 19.2554 119.694 20.1524 118.879 21.7017L118.689 19.6631H115.698V39.3156ZM119.069 26.377C119.069 23.9578 120.537 22.2726 122.848 22.2726C125.158 22.2726 126.544 23.985 126.544 26.377C126.544 28.769 125.158 30.4543 122.848 30.4543C120.537 30.4543 119.069 28.7962 119.069 26.377Z" fill="#110229"/>
<path d="M130.729 29.068C130.838 31.7318 132.904 33.4443 136.111 33.4443C139.264 33.4443 141.412 31.759 141.412 29.1496C141.412 27.2196 140.216 25.9149 138.014 25.3713L135.649 24.8005C134.643 24.5286 133.964 24.1753 133.964 23.3055C133.964 22.3813 134.698 21.7289 135.894 21.7289C137.144 21.7289 137.96 22.4356 137.96 23.6045H140.977C140.868 20.9406 138.884 19.2554 135.975 19.2554C133.094 19.2554 130.947 20.9406 130.947 23.4957C130.947 25.2354 131.952 26.676 134.535 27.3556L136.872 27.9536C137.742 28.1982 138.286 28.6059 138.286 29.367C138.286 30.4271 137.28 30.9164 136.057 30.9164C134.589 30.9164 133.746 30.2368 133.746 29.068H130.729Z" fill="#110229"/>
<path d="M148.291 33.4443C150.112 33.4443 151.852 32.6016 152.64 31.3513L152.858 33.0909H155.956V19.6631H152.64V26.7032C152.64 29.1224 151.716 30.4815 149.541 30.4815C147.856 30.4815 146.687 29.666 146.687 26.8935V19.6631H143.371V28.0623C143.371 31.2697 145.111 33.4443 148.291 33.4443Z" fill="#110229"/>
<path d="M162.199 33.0909V25.3713C162.199 23.1967 163.476 22.1638 165.053 22.1638C166.629 22.1638 167.662 23.1696 167.662 25.0723V33.0909H170.897V25.3985C170.897 23.1967 172.147 22.1638 173.724 22.1638C175.328 22.1638 176.36 23.1696 176.36 25.0723V33.0909H179.568V24.3112C179.568 21.2125 177.855 19.2554 174.594 19.2554C172.555 19.2554 170.951 20.2339 170.299 21.8105C169.565 20.2339 168.097 19.2554 165.868 19.2554C164.292 19.2554 162.878 19.9893 162.09 21.1853L161.927 19.6631H158.883V33.0909H162.199Z" fill="#110229"/>
<path d="M154.249 45.0911C154.743 45.0911 155.172 44.6751 155.172 44.1811C155.172 43.6741 154.743 43.2581 154.249 43.2581C153.742 43.2581 153.312 43.6741 153.312 44.1811C153.312 44.6751 153.742 45.0911 154.249 45.0911Z" fill="#110229"/>
<path d="M156.125 41.7371C156.125 43.7261 157.347 45.0651 159.128 45.0651C160.662 45.0651 161.832 44.1421 162.079 42.7641H160.909C160.688 43.5311 160.012 43.9861 159.206 43.9861C158.062 43.9861 157.334 43.1021 157.334 41.7241C157.334 40.3201 158.101 39.4621 159.232 39.4621C160.012 39.4621 160.688 39.8781 160.896 40.6971H162.066C161.858 39.3061 160.766 38.3701 159.245 38.3701C157.399 38.3701 156.125 39.7351 156.125 41.7371Z" fill="#110229"/>
<path d="M162.54 41.7241C162.54 43.6351 163.84 45.0651 165.79 45.0651C167.74 45.0651 169.04 43.6351 169.04 41.7241C169.04 39.8131 167.74 38.3831 165.79 38.3831C163.84 38.3831 162.54 39.8131 162.54 41.7241ZM163.775 41.7241C163.775 40.4241 164.568 39.4751 165.79 39.4751C167.012 39.4751 167.805 40.4241 167.805 41.7241C167.805 43.0241 167.012 43.9731 165.79 43.9731C164.568 43.9731 163.775 43.0241 163.775 41.7241Z" fill="#110229"/>
<path d="M171.306 44.9221V41.1001C171.306 40.0991 171.93 39.4491 172.84 39.4491C173.711 39.4491 174.257 40.0081 174.257 41.0091V44.9221H175.453V41.1131C175.453 40.0991 176.064 39.4491 176.987 39.4491C177.845 39.4491 178.391 40.0081 178.391 41.0091V44.9221H179.574V40.7491C179.574 39.2801 178.716 38.3831 177.26 38.3831C176.272 38.3831 175.505 38.8641 175.193 39.6441C174.868 38.8641 174.153 38.3831 173.113 38.3831C172.32 38.3831 171.618 38.7471 171.267 39.3711L171.176 38.5651H170.084V44.9221H171.306Z" fill="#110229"/>
<path fill-rule="evenodd" clip-rule="evenodd" d="M2.36353 26.5143L2.36581 26.2775L2.37051 26.0405L2.37765 25.8036L2.38721 25.5666L2.39922 25.3297L2.41365 25.0927L2.43052 24.8559L2.44982 24.6191L2.47157 24.3823L2.49575 24.1456L2.52236 23.9093L2.5514 23.6729L2.58288 23.4368L2.6168 23.2009L2.65314 22.9652L2.69192 22.7299L2.73313 22.4947L2.77675 22.26L2.8228 22.0256L2.87128 21.7914L2.92218 21.5577L2.97548 21.3244L3.03122 21.0916L3.08934 20.8591L3.14988 20.6272L3.21282 20.3957L3.27816 20.1648L3.34589 19.9344L3.41601 19.7047L3.4885 19.4755L3.56338 19.247L3.64063 19.019L3.72025 18.7917L3.80222 18.5652L3.88656 18.3393L3.97323 18.1142L4.06226 17.8899L4.15361 17.6663L4.2473 17.4436L4.3433 17.2217L4.44161 17.0006L4.54223 16.7804L4.64514 16.5612L4.75035 16.3428L4.85784 16.1253L4.96759 15.9089L5.0796 15.6935L5.19387 15.479L5.31038 15.2657L5.42911 15.0533L5.55009 14.842L5.67325 14.6319L5.79863 14.4228L5.9262 14.2149L6.05595 14.0082L6.18787 13.8027L6.32194 13.5985L6.45817 13.3953L6.59653 13.1936L6.73701 12.993L6.8796 12.7938L7.02427 12.5959L7.17104 12.3993L7.31988 12.2042L7.47079 12.0104L7.62373 11.8179L7.7787 11.6269L7.93569 11.4374L8.09468 11.2493L8.25567 11.0627L8.41863 10.8776L8.58354 10.6941L8.7504 10.512L8.9192 10.3316L9.0899 10.1527L9.26251 9.9755L9.43699 9.79987L9.61334 9.62588L9.79155 9.45356L9.97159 9.28292L10.1534 9.11399L10.3371 8.94676L10.5225 8.78128L10.7098 8.61755L10.8987 8.45559L11.0894 8.29543L11.2818 8.13707L11.4759 7.98054L11.6717 7.82585L11.8691 7.67302L12.0681 7.52208L12.2689 7.37302L12.4713 7.22588L12.6751 7.08067L12.8805 6.9374L13.0876 6.79609L13.2961 6.65674L13.5061 6.5194L13.7176 6.38406L13.9307 6.25075L14.1451 6.11947L14.361 5.99024L14.5782 5.86309L14.7968 5.73802L15.0169 5.61504L15.2383 5.49417L15.4609 5.37542L15.6849 5.25883L15.9101 5.14437L16.1367 5.03208L16.3644 4.92197L16.5934 4.81405L16.8235 4.70834L17.0549 4.60484L17.2874 4.50357L17.5211 4.40455L17.7558 4.30778L17.9915 4.21327L18.2284 4.12103L18.4663 4.03109L18.7051 3.94344L18.945 3.85811L19.1859 3.77509L19.4277 3.69439L19.6703 3.61605L19.9139 3.54005L20.1584 3.46641L20.4037 3.39515L20.6498 3.32626L20.8968 3.25975L21.1445 3.19563L21.3929 3.13393L21.6421 3.07465L21.892 3.01777L22.1426 2.96333L22.3937 2.91132L22.6455 2.86176L22.898 2.81465L23.151 2.76999L23.4046 2.7278L23.6587 2.68808L23.9133 2.65083L24.1683 2.61607L24.4238 2.58379L24.6798 2.55401L24.9361 2.52671L25.1928 2.50194L25.4499 2.47966L25.7073 2.45989L25.9649 2.44265L27.3505 2.36353L27.4295 9.03923L27.4748 9.03871L27.6661 9.03843L27.8575 9.04004L28.0488 9.04353L28.2404 9.04891L28.4318 9.05616L28.6234 9.06529L28.815 9.07631L29.0066 9.08923L29.198 9.10401L29.3896 9.1207L29.5809 9.13928L29.7723 9.15975L29.9634 9.1821L30.1545 9.20634L30.3453 9.23247L30.5361 9.26047L30.7266 9.29039L30.917 9.32218L31.107 9.35585L31.2969 9.39141L31.4865 9.42885L31.6757 9.46818L31.8648 9.50938L32.0534 9.55245L32.2417 9.5974L32.4297 9.64422L32.6172 9.69293L32.8043 9.74348L32.9911 9.79591L33.1774 9.85019L33.3632 9.90633L33.5485 9.96432L33.7334 10.0242L33.9177 10.0859L34.1015 10.1494L34.2847 10.2147L34.4674 10.2819L34.6494 10.351L34.8308 10.4218L35.0116 10.4945L35.1917 10.5689L35.3711 10.6452L35.5499 10.7233L35.728 10.8032L35.9053 10.8848L36.0819 10.9683L36.2577 11.0535L36.4328 11.1405L36.6069 11.2293L36.7803 11.3198L36.9529 11.412L37.1246 11.506L37.2954 11.6017L37.4653 11.6992L37.6343 11.7984L37.8024 11.8993L37.9695 12.0018L38.1356 12.1061L38.3007 12.2121L38.4649 12.3196L38.628 12.429L38.7901 12.5399L38.9511 12.6524L39.1111 12.7667L39.2699 12.8825L39.4276 13L39.5843 13.1191L39.7397 13.2398L39.8941 13.3621L40.0471 13.4859L40.1991 13.6112L40.3498 13.7383L40.4993 13.8668L40.6476 13.9968L40.7946 14.1283L40.9402 14.2614L41.0846 14.396L41.2277 14.532L41.3696 14.6694L41.51 14.8084L41.6491 14.9488L41.7867 15.0908L41.9231 15.234L42.058 15.3787L42.1915 15.5247L42.3235 15.6722L42.4541 15.821L42.5833 15.9712L42.7109 16.1227L42.8371 16.2755L42.9618 16.4298L43.085 16.5852L43.2066 16.7419L43.3266 16.8999L43.4452 17.0592L43.5621 17.2197L43.6774 17.3815L43.7911 17.5445L43.9033 17.7085L44.0138 17.8738L44.1226 18.0403L44.2298 18.208L44.3352 18.3768L44.4391 18.5466L44.5412 18.7176L44.6417 18.8897L44.7403 19.0629L44.8374 19.2371L44.9326 19.4123L45.0261 19.5885L45.1178 19.7658L45.2077 19.944L45.2959 20.1232L45.3823 20.3034L45.4669 20.4845L45.5496 20.6665L45.6306 20.8494L45.7097 21.0332L45.7868 21.2179L45.8622 21.4033L45.9358 21.5897L46.0074 21.7768L46.0771 21.9648L46.1449 22.1534L46.2109 22.343L46.2749 22.5331L46.3371 22.7241L46.3973 22.9157L46.4555 23.108L46.5118 23.301L46.5661 23.4946L46.6185 23.6888L46.669 23.8837L46.7173 24.0791L46.7639 24.2751L46.8083 24.4717L46.8507 24.6688L46.8913 24.8663L46.9297 25.0645L46.9661 25.263L47.0006 25.462L47.033 25.6614L47.0633 25.8613L47.0917 26.0616L47.1179 26.2621L47.1422 26.4632L47.1644 26.6644L47.1845 26.866L47.2025 27.0679L47.2186 27.2701L47.2326 27.4726L47.2444 27.6752L47.2542 27.878L47.262 28.0812L47.2675 28.2843L47.2712 28.4877L47.2726 28.6912L47.272 28.8949L47.2693 29.0986L47.2645 29.3025L47.2576 29.5062L47.2486 29.7101L47.2376 29.914L47.2244 30.1178L47.2092 30.3217L47.1918 30.5254L47.1723 30.7292L47.1508 30.9328L47.127 31.1362L47.1013 31.3396L47.0735 31.5427L47.0435 31.7458L47.0114 31.9486L46.9773 32.1511L46.941 32.3535L46.9027 32.5556L46.8623 32.7574L46.8197 32.9589L46.7751 33.1601L46.7284 33.361L46.6797 33.5614L46.6288 33.7615L46.5758 33.9611L46.5209 34.1603L46.4638 34.3591L46.4047 34.5574L46.3435 34.7554L46.2801 34.9526L46.2149 35.1495L46.1475 35.3457L46.078 35.5414L46.0067 35.7365L45.9332 35.9309L45.8576 36.1248L45.7801 36.318L45.7006 36.5105L45.619 36.7023L45.5355 36.8935L45.4499 37.0838L45.3623 37.2735L45.2728 37.4623L45.1813 37.6504L45.0877 37.8377L44.9923 38.0241L44.8948 38.2097L44.7955 38.3943L44.6941 38.5782L44.591 38.761L44.4858 38.943L44.3787 39.1241L44.2697 39.3041L44.1589 39.4833L44.046 39.6612L43.9314 39.8383L43.815 40.0142L43.6966 40.1892L43.5764 40.363L43.4543 40.5358L43.3304 40.7074L43.2047 40.8779L43.0772 41.0473L42.9479 41.2154L42.8168 41.3823L42.684 41.5481L42.5494 41.7126L42.413 41.8758L42.2748 42.0379L42.135 42.1986L41.9934 42.358L41.8502 42.5162L41.7053 42.673L41.5588 42.8284L41.4104 42.9825L41.2606 43.1351L41.109 43.2863L40.9558 43.4362L40.8011 43.5846L40.6447 43.7317L40.4869 43.8771L40.3273 44.0212L40.1662 44.1636L40.0037 44.3046L39.8396 44.4442L39.674 44.5821L39.5069 44.7184L39.3384 44.8532L39.1683 44.9864L38.9968 45.1179L38.8239 45.2478L38.6496 45.3762L38.474 45.5028L38.2968 45.6278L38.1184 45.7511L37.9386 45.8728L37.7576 45.9926L37.5751 46.1108L37.3914 46.2273L37.2065 46.3419L37.0202 46.4549L36.8327 46.566L36.6439 46.6754L36.4541 46.783L36.2629 46.8886L36.0708 46.9926L35.8773 47.0946L35.6828 47.1949L35.4871 47.2933L35.2903 47.3897L35.0924 47.4843L34.8935 47.5771L34.6936 47.6678L34.4927 47.7567L34.2907 47.8436L34.0878 47.9285L33.8839 48.0116L33.6791 48.0927L33.4734 48.1717L33.2667 48.2489L33.0591 48.324L32.8507 48.3971L32.6415 48.4681L32.4315 48.5373L32.2205 48.6043L32.0088 48.6693L31.7965 48.7323L31.5834 48.7931L31.3695 48.852L31.155 48.9088L30.9397 48.9634L30.7239 49.016L30.5073 49.0666L30.2901 49.115L30.0724 49.1613L29.8542 49.2055L29.6353 49.2476L29.4159 49.2875L29.1961 49.3252L28.9757 49.3609L28.7549 49.3945L28.5336 49.4258L28.312 49.455L28.0899 49.482L27.8674 49.5068L27.6446 49.5295L27.4215 49.5501L27.1981 49.5684L26.9744 49.5846L26.7505 49.5986L26.5262 49.6104L26.3017 49.6199L26.0772 49.6273L25.8523 49.6325L25.6274 49.6354L25.4022 49.6363L25.1771 49.6348L24.9519 49.6312L24.7265 49.6254L24.5011 49.6172L24.2757 49.6069L24.0504 49.5945L23.8251 49.5798L23.5997 49.5629L23.3746 49.5437L23.1495 49.5223L22.9244 49.4988L22.6997 49.473L22.475 49.445L22.2505 49.4148L22.0263 49.3823L21.8022 49.3477L21.5785 49.3108L21.355 49.2718L21.1317 49.2304L20.909 49.1869L20.6864 49.1413L20.4644 49.0933L20.2425 49.0432L20.0213 48.991L19.8004 48.9365L19.58 48.8798L19.3601 48.8209L19.1407 48.7599L18.9219 48.6967L18.7035 48.6314L18.4858 48.5638L18.2687 48.494L18.0522 48.4222L17.8362 48.3481L17.621 48.2718L17.4065 48.1936L17.1927 48.1131L16.9797 48.0305L16.7674 47.9458L16.5559 47.8589L16.3451 47.7699L16.1353 47.6789L15.9262 47.5858L15.718 47.4905L15.5107 47.3932L15.3043 47.2938L15.0989 47.1923L14.8943 47.0887L14.6908 46.9832L14.4884 46.8755L14.2868 46.766L14.0863 46.6543L13.887 46.5406L13.6887 46.4249L13.4914 46.3072L13.2953 46.1876L13.1003 46.0659L12.9065 45.9424L12.714 45.8167L12.5226 45.6893L12.3324 45.5598L12.1435 45.4285L11.9559 45.2953L11.7695 45.1601L11.5845 45.0231L11.4007 44.8842L11.2184 44.7434L11.0374 44.6009L10.8577 44.4563L10.6795 44.3102L10.5027 44.1621L10.3274 44.0122L10.1535 43.8606L9.98112 43.7071L9.81023 43.5519L9.64087 43.3951L9.47303 43.2364L9.30676 43.0761L9.14206 42.914L8.97894 42.7503L8.81745 42.5849L8.65758 42.4178L8.49936 42.2492L8.34281 42.0789L8.18794 41.9069L8.03476 41.7334L7.8833 41.5584L7.73358 41.3817L7.5856 41.2036L7.4394 41.0239L7.29497 40.8427L7.15235 40.66L7.01153 40.4759L6.87255 40.2902L6.73541 40.1031L6.60014 39.9146L6.46674 39.7247L6.33524 39.5335L6.20564 39.3408L6.07797 39.1468L5.95224 38.9516L5.82844 38.7549L5.70662 38.5569L5.58678 38.3578L5.46893 38.1573L5.3531 37.9556L5.23928 37.7527L5.12749 37.5486L5.01776 37.3432L4.91007 37.1368L4.80448 36.9292L4.70095 36.7205L4.59954 36.5107L4.50023 36.2998L4.40304 36.0879L4.30798 35.8748L4.21507 35.6609L4.12432 35.4458L4.03574 35.2299L3.94932 35.0129L3.86511 34.795L3.7831 34.5762L3.70329 34.3565L3.62571 34.136L3.55034 33.9146L3.47722 33.6923L3.40636 33.4693L3.33775 33.2455L3.27141 33.021L3.20734 32.7956L3.14556 32.5695L3.08607 32.3428L3.02888 32.1154L2.97399 31.8874L2.92144 31.6587L2.8712 31.4293L2.82329 31.1994L2.77772 30.969L2.73449 30.738L2.69361 30.5065L2.65509 30.2745L2.61893 30.0421L2.58514 29.8091L2.55373 29.5757L2.5247 29.342L2.49805 29.1078L2.47379 28.8734L2.45193 28.6387L2.43246 28.4035L2.4154 28.1681L2.40074 27.9324L2.3885 27.6965L2.37866 27.4604L2.37124 27.2241L2.36624 26.9877L2.36368 26.7511L2.36353 26.5143ZM25.2649 9.17906L25.211 4.62882L25.1599 4.63376L24.9249 4.65877L24.6906 4.68605L24.4563 4.71564L24.223 4.74743L23.99 4.78154L23.7572 4.81793L23.525 4.85655L23.2932 4.89747L23.0625 4.94053L22.8314 4.98599L22.602 5.0335L22.3723 5.08341L22.1437 5.13543L21.9154 5.18977L21.6881 5.24619L21.4615 5.30488L21.2354 5.36576L21.01 5.42883L20.7857 5.49402L20.5618 5.56145L20.339 5.63098L20.1168 5.70272L19.8958 5.77644L19.6752 5.85249L19.4557 5.93057L19.2373 6.01072L19.0195 6.09306L18.8029 6.17741L18.5874 6.26379L18.3726 6.35239L18.1588 6.443L17.946 6.53568L17.7345 6.6303L17.524 6.72699L17.3147 6.82562L17.1061 6.92643L16.8991 7.02908L16.6931 7.13373L16.4883 7.24036L16.2846 7.34895L16.0824 7.45941L15.881 7.57191L15.681 7.68635L15.4827 7.80243L15.2849 7.92078L15.0891 8.0407L14.8946 8.16248L14.701 8.28627L14.509 8.41186L14.3183 8.53928L14.1295 8.66821L13.9413 8.79941L13.7551 8.93202L13.5702 9.06647L13.3867 9.20275L13.2048 9.34066L13.0246 9.48022L12.8454 9.62175L12.6683 9.76461L12.4924 9.90936L12.3182 10.0557L12.1456 10.2037L11.9747 10.3531L11.805 10.5045L11.6374 10.6572L11.4711 10.8116L11.3068 10.9673L11.144 11.1248L10.983 11.2836L10.8236 11.444L10.6658 11.6061L10.51 11.7693L10.356 11.9339L10.2034 12.1004L10.0529 12.268L9.90421 12.4368L9.75706 12.6073L9.61206 12.7789L9.46865 12.952L9.32718 13.1263L9.18756 13.3021L9.04976 13.479L8.91399 13.6571L8.78 13.8365L8.64784 14.0173L8.51782 14.199L8.38953 14.3821L8.26329 14.5663L8.139 14.7516L8.01658 14.9381L7.89622 15.1256L7.77784 15.3141L7.66144 15.5038L7.54712 15.6944L7.43468 15.8862L7.32427 16.0791L7.21602 16.2727L7.10972 16.4673L7.00545 16.6631L6.90329 16.8596L6.80314 17.0571L6.70515 17.2553L6.6092 17.4544L6.51536 17.6544L6.42357 17.8553L6.33395 18.0568L6.24637 18.2592L6.16092 18.4624L6.07766 18.6661L5.99648 18.8707L5.91743 19.076L5.84055 19.2818L5.7658 19.4884L5.69326 19.6955L5.62282 19.9034L5.55455 20.1117L5.48848 20.3207L5.42459 20.53L5.36283 20.7401L5.3033 20.9505L5.24594 21.1614L5.19077 21.3727L5.13778 21.5846L5.08701 21.7968L5.03844 22.0094L4.99207 22.2223L4.9479 22.4356L4.90595 22.6492L4.86619 22.8631L4.82866 23.0773L4.79333 23.2918L4.76023 23.5064L4.72934 23.7212L4.70067 23.9363L4.6742 24.1515L4.64997 24.3669L4.62795 24.5824L4.60815 24.798L4.59057 25.0135L4.5752 25.2293L4.56206 25.4451L4.55113 25.6608L4.54242 25.8766L4.53592 26.0923L4.53164 26.308L4.52956 26.5236L4.5297 26.7391L4.53204 26.9544L4.53659 27.1698L4.54334 27.3849L4.55229 27.5997L4.56344 27.8145L4.57678 28.0288L4.5923 28.2431L4.61002 28.457L4.62992 28.6707L4.65199 28.8841L4.67624 29.0971L4.70265 29.3098L4.73123 29.5221L4.76197 29.734L4.79487 29.9455L4.8299 30.1565L4.86709 30.3671L4.90641 30.5772L4.94785 30.7867L4.99143 30.9959L5.03712 31.2044L5.08492 31.4124L5.13483 31.6198L5.18683 31.8266L5.24093 32.0328L5.29709 32.2382L5.35536 32.4432L5.41568 32.6474L5.47805 32.8509L5.54249 33.0537L5.60894 33.2557L5.67744 33.4569L5.74797 33.6574L5.82051 33.8571L5.89504 34.0559L5.97161 34.2539L6.05011 34.4511L6.13061 34.6474L6.21309 34.8427L6.2975 35.0371L6.38388 35.2307L6.47219 35.4234L6.56242 35.6149L6.65455 35.8056L6.7486 35.9951L6.84453 36.1837L6.94235 36.3713L7.04203 36.5578L7.14357 36.7432L7.24694 36.9275L7.35215 37.1106L7.45917 37.2928L7.56802 37.4736L7.6786 37.6533L7.79104 37.8319L7.90519 38.0092L8.02113 38.1854L8.1388 38.3603L8.25818 38.5339L8.37926 38.7063L8.50209 38.8775L8.62656 39.0473L8.75274 39.2158L8.88052 39.3829L9.01001 39.5487L9.14105 39.7131L9.27375 39.8762L9.40807 40.038L9.5439 40.1983L9.68134 40.3571L9.82032 40.5145L9.96087 40.6705L10.1029 40.825L10.2464 40.978L10.3914 41.1295L10.5379 41.2796L10.6859 41.4282L10.8353 41.5751L10.9861 41.7206L11.1383 41.8644L11.2919 42.0068L11.447 42.1475L11.6033 42.2866L11.7609 42.4241L11.9199 42.56L12.0803 42.6943L12.2418 42.8269L12.4047 42.9579L12.5688 43.0871L12.7341 43.2147L12.9006 43.3407L13.0684 43.4649L13.2373 43.5874L13.4074 43.7081L13.5785 43.8271L13.7509 43.9445L13.9243 44.06L14.099 44.1738L14.2745 44.2858L14.4512 44.396L14.6289 44.5044L14.8075 44.611L14.9872 44.7159L15.1678 44.8188L15.3495 44.92L15.5319 45.0192L15.7155 45.1167L15.8997 45.2124L16.0849 45.3062L16.271 45.398L16.458 45.4881L16.6457 45.5762L16.8342 45.6625L17.0234 45.7468L17.2135 45.8293L17.4043 45.9097L17.5959 45.9885L17.788 46.0652L17.9809 46.1398L18.1745 46.2128L18.3685 46.2837L18.5633 46.3526L18.7588 46.4196L18.9547 46.4847L19.1513 46.5478L19.3481 46.6089L19.5459 46.6681L19.7438 46.7253L19.9424 46.7805L20.1414 46.8338L20.3408 46.8851L20.5406 46.9344L20.7407 46.9817L20.9414 47.027L21.1423 47.0703L21.3434 47.1117L21.545 47.151L21.7469 47.1884L21.949 47.2237L22.1513 47.257L22.3539 47.2883L22.5567 47.3176L22.7597 47.3449L22.9627 47.3704L23.166 47.3936L23.3694 47.4149L23.5729 47.4343L23.7765 47.4515L23.9802 47.4669L24.1838 47.4801L24.3875 47.4915L24.5912 47.5007L24.7948 47.508L24.9984 47.5134L25.202 47.5165L25.4054 47.5178L25.6088 47.5171L25.8121 47.5144L26.0151 47.5098L26.2181 47.5031L26.4209 47.4944L26.6234 47.4838L26.8256 47.4712L27.0277 47.4566L27.2296 47.4401L27.4311 47.4215L27.6322 47.401L27.8331 47.3785L28.0336 47.3542L28.2338 47.3278L28.4335 47.2994L28.6329 47.2692L28.8318 47.237L29.0303 47.2029L29.2284 47.1668L29.4259 47.1289L29.6229 47.0891L29.8194 47.0472L30.0154 47.0036L30.2107 46.958L30.4056 46.9105L30.5998 46.8612L30.7933 46.8099L30.9862 46.7569L31.1786 46.7019L31.3702 46.6451L31.5612 46.5865L31.7513 46.5261L31.9409 46.4637L32.1296 46.3996L32.3174 46.3337L32.5047 46.2658L32.6911 46.1963L32.8767 46.125L33.0614 46.0519L33.2451 45.9771L33.4281 45.9004L33.6102 45.8221L33.7914 45.7419L33.9715 45.6601L34.1509 45.5766L34.3292 45.4913L34.5065 45.4044L34.6829 45.3156L34.8582 45.2254L35.0325 45.1334L35.2059 45.0397L35.378 44.9444L35.5491 44.8475L35.719 44.7491L35.8882 44.6489L36.0557 44.5472L36.2226 44.4438L36.388 44.339L36.5522 44.2325L36.7154 44.1245L36.8775 44.0148L37.038 43.904L37.1974 43.7913L37.3556 43.6773L37.5126 43.5618L37.6683 43.4447L37.8226 43.3264L37.9758 43.2063L38.1275 43.0851L38.2778 42.9624L38.4271 42.8382L38.5748 42.7126L38.721 42.5858L38.866 42.4574L39.0095 42.3279L39.1516 42.1969L39.2924 42.0647L39.4315 41.9313L39.5694 41.7963L39.7058 41.6602L39.8406 41.5228L39.9741 41.3842L40.1058 41.2445L40.2361 41.1036L40.3651 40.9611L40.4923 40.8179L40.6182 40.6732L40.7422 40.5276L40.8649 40.3807L40.9859 40.2329L41.1053 40.0839L41.2233 39.9336L41.3394 39.7826L41.4542 39.6303L41.567 39.4771L41.6785 39.3228L41.7884 39.1674L41.8962 39.0114L42.0027 38.8541L42.1073 38.696L42.2103 38.5369L42.3118 38.3767L42.4113 38.216L42.5092 38.0543L42.6055 37.8913L42.6998 37.7281L42.7926 37.5637L42.8837 37.3985L42.9728 37.2328L43.0604 37.066L43.1462 36.8984L43.23 36.7307L43.3122 36.5616L43.3927 36.3919L43.4713 36.2217L43.5481 36.0508L43.6232 35.8792L43.6963 35.7071L43.7678 35.5341L43.8374 35.3606L43.9052 35.187L43.9711 35.0121L44.0352 34.8372L44.0975 34.6614L44.1581 34.4853L44.2167 34.3087L44.2733 34.132L44.3284 33.954L44.3813 33.7763L44.4325 33.5979L44.4819 33.4193L44.5294 33.2401L44.5749 33.0608L44.6187 32.8809L44.6606 32.7007L44.7006 32.5203L44.7388 32.3395L44.775 32.1588L44.8094 31.9773L44.8419 31.7962L44.8725 31.6145L44.9012 31.4326L44.928 31.2507L44.9531 31.0685L44.9761 30.8865L44.9974 30.7036L45.0166 30.5215L45.0341 30.3388L45.0496 30.1565L45.0633 29.9735L45.0751 29.7913L45.0851 29.6085L45.0931 29.4255L45.0993 29.243L45.1036 29.0609L45.106 28.8781L45.1066 28.6956L45.1053 28.5134L45.1021 28.3313L45.097 28.1491L45.09 27.9677L45.0813 27.7856L45.0707 27.6043L45.0581 27.423L45.0438 27.2423L45.0276 27.0613L45.0097 26.8811L44.9898 26.7007L44.9681 26.521L44.9446 26.3413L44.9193 26.1623L44.892 25.9831L44.863 25.8048L44.8323 25.627L44.7997 25.4492L44.7652 25.2719L44.729 25.0953L44.6909 24.9186L44.6514 24.7433L44.6096 24.5676L44.5665 24.3932L44.5212 24.2185L44.4744 24.0452L44.4259 23.872L44.3755 23.6992L44.3235 23.5275L44.2697 23.3564L44.2141 23.1854L44.157 23.0157L44.0979 22.8461L44.0374 22.6776L43.975 22.5094L43.9111 22.3424L43.8452 22.1756L43.7779 22.0098L43.709 21.8451L43.6384 21.6811L43.5658 21.5173L43.4922 21.355L43.4165 21.1928L43.3394 21.0322L43.2607 20.8722L43.1802 20.7128L43.0984 20.5547L43.0149 20.3972L42.9297 20.2405L42.8434 20.0854L42.7551 19.9305L42.6655 19.777L42.5742 19.6242L42.4818 19.4729L42.3873 19.322L42.2919 19.1725L42.1946 19.0237L42.096 18.8762L41.9962 18.7301L41.8945 18.5845L41.7916 18.4402L41.6873 18.2969L41.5816 18.155L41.4745 18.0139L41.366 17.8742L41.2562 17.7354L41.145 17.598L41.0325 17.4617L40.9186 17.3265L40.8034 17.1926L40.6869 17.0599L40.5693 16.9285L40.4503 16.7983L40.3298 16.6691L40.2087 16.5417L40.0855 16.415L39.9618 16.2901L39.8366 16.1661L39.7104 16.0437L39.5825 15.9222L39.4542 15.8026L39.3242 15.6839L39.1931 15.5667L39.0613 15.451L38.9283 15.3366L38.7937 15.2232L38.6583 15.1116L38.5221 15.0013L38.3846 14.8925L38.2461 14.7849L38.1069 14.6791L37.9662 14.5742L37.8249 14.4713L37.6825 14.3696L37.5391 14.2693L37.395 14.1706L37.2494 14.0731L37.1038 13.9776L36.9565 13.8832L36.8088 13.7904L36.6599 13.6991L36.5104 13.6092L36.3601 13.5211L36.2091 13.4346L36.0568 13.3491L35.9045 13.2657L35.7508 13.1835L35.5966 13.1031L35.4418 13.0242L35.286 12.9468L35.1297 12.871L34.9727 12.7969L34.815 12.7242L34.6568 12.6533L34.4979 12.5838L34.3332 12.5138L34.1784 12.4499L34.0173 12.3851L33.8565 12.3224L33.6944 12.2608L33.5322 12.2012L33.3694 12.1431L33.2062 12.0867L33.0422 12.0317L32.8782 11.9787L32.7134 11.9272L32.5483 11.8773L32.3831 11.8292L32.2172 11.7826L32.0507 11.7376L31.8844 11.6944L31.7178 11.6529L31.5501 11.6129L31.383 11.5747L31.215 11.5381L31.0471 11.5032L30.8786 11.4699L30.7103 11.4384L30.5415 11.4085L30.3729 11.3803L30.2034 11.3537L30.0344 11.3289L29.865 11.3057L29.6954 11.2842L29.5258 11.2644L29.3563 11.2462L29.1865 11.2298L29.0167 11.215L28.8468 11.2018L28.6767 11.1904L28.5071 11.1806L28.3374 11.1725L28.1671 11.1661L27.9978 11.1613L27.828 11.1582L27.6585 11.1568L27.4886 11.157L27.4546 11.1574L27.5081 15.6746L27.6044 15.6741L27.7284 15.6748L27.8524 15.6767L27.9765 15.6799L28.1007 15.6843L28.2249 15.6899L28.3491 15.6968L28.4734 15.7048L28.5978 15.7142L28.7221 15.7247L28.8464 15.7365L28.9706 15.7495L29.095 15.7638L29.2192 15.7793L29.3433 15.796L29.4673 15.814L29.5913 15.8332L29.7152 15.8536L29.839 15.8754L29.9626 15.8983L30.0861 15.9225L30.2095 15.9479L30.3328 15.9745L30.4558 16.0024L30.5786 16.0316L30.7013 16.062L30.8236 16.0935L30.9458 16.1264L31.0678 16.1604L31.1895 16.1958L31.311 16.2323L31.4321 16.27L31.5529 16.309L31.6734 16.3492L31.7938 16.3906L31.9136 16.4333L32.0332 16.4772L32.1523 16.5222L32.2712 16.5685L32.3896 16.616L32.5077 16.6647L32.6253 16.7147L32.7425 16.7658L32.8593 16.8181L32.9756 16.8715L33.0914 16.9262L33.2069 16.9821L33.3217 17.0392L33.4361 17.0975L33.5501 17.1569L33.6634 17.2174L33.7763 17.2793L33.8885 17.3421L34.0002 17.4062L34.1114 17.4714L34.222 17.5378L34.3319 17.6053L34.4413 17.674L34.55 17.7438L34.6581 17.8147L34.7656 17.8867L34.8724 17.9599L34.9785 18.0342L35.0839 18.1095L35.1886 18.1859L35.2926 18.2636L35.3961 18.3422L35.4985 18.422L35.6004 18.5028L35.7014 18.5846L35.8018 18.6675L35.9013 18.7516L36.0001 18.8365L36.0981 18.9226L36.1952 19.0097L36.2915 19.0978L36.3869 19.1869L36.4816 19.2771L36.5753 19.3682L36.6682 19.4604L36.7602 19.5535L36.8513 19.6477L36.9416 19.7428L37.0309 19.8388L37.1193 19.9359L37.2067 20.0338L37.2932 20.1326L37.3788 20.2325L37.4634 20.3332L37.5471 20.4348L37.6297 20.5374L37.7114 20.6408L37.792 20.7452L37.8716 20.8504L37.9502 20.9565L38.0277 21.0633L38.1043 21.1711L38.1797 21.2797L38.2542 21.3891L38.3274 21.4994L38.3997 21.6104L38.4708 21.7223L38.5409 21.8349L38.6099 21.9483L38.6777 22.0624L38.7444 22.1774L38.81 22.293L38.8744 22.4094L38.9376 22.5265L38.9998 22.6444L39.0608 22.7629L39.1204 22.8821L39.1791 23.0021L39.2365 23.1226L39.2926 23.2438L39.3476 23.3657L39.4014 23.4882L39.4539 23.6113L39.5052 23.7351L39.5554 23.8594L39.6042 23.9843L39.6517 24.1097L39.698 24.2358L39.743 24.3624L39.7869 24.4895L39.8294 24.6172L39.8705 24.7454L39.9105 24.874L39.9491 25.0031L39.9865 25.1328L40.0225 25.2629L40.0571 25.3935L40.0906 25.5244L40.1226 25.6559L40.1534 25.7876L40.1828 25.9199L40.2108 26.0525L40.2375 26.1854L40.2628 26.3187L40.2868 26.4525L40.3095 26.5865L40.3307 26.7208L40.3506 26.8555L40.3691 26.9904L40.3863 27.1256L40.4021 27.2611L40.4164 27.3969L40.4294 27.5328L40.4411 27.6691L40.4513 27.8055L40.4601 27.9421L40.4675 28.0788L40.4735 28.2158L40.4781 28.353L40.4813 28.4902L40.4831 28.6277L40.4834 28.7652L40.4824 28.9028L40.4799 29.0405L40.476 29.1783L40.4707 29.3162L40.4639 29.454L40.4558 29.5919L40.4462 29.7299L40.4352 29.8679L40.4227 30.0058L40.4089 30.1437L40.3935 30.2815L40.3768 30.4194L40.3586 30.5571L40.339 30.6948L40.318 30.8323L40.2955 30.9698L40.2716 31.1071L40.2462 31.2443L40.2195 31.3814L40.1913 31.5183L40.1616 31.655L40.1307 31.7915L40.0982 31.9278L40.0642 32.0638L40.0289 32.1997L39.9921 32.3353L39.954 32.4706L39.9144 32.6055L39.8734 32.7403L39.831 32.8748L39.787 33.0089L39.7417 33.1426L39.695 33.276L39.6471 33.4091L39.5975 33.5417L39.5466 33.6739L39.4944 33.8058L39.4407 33.9372L39.3856 34.0683L39.3291 34.1988L39.2714 34.3289L39.2122 34.4585L39.1515 34.5876L39.0896 34.7162L39.0262 34.8443L38.9615 34.9718L38.8954 35.0988L38.8281 35.2252L38.7593 35.351L38.6892 35.4763L38.6178 35.601L38.545 35.725L38.4709 35.8485L38.3955 35.9711L38.3188 36.0933L38.2407 36.2147L38.1614 36.3355L38.0807 36.4554L37.9988 36.5748L37.9156 36.6935L37.8311 36.8113L37.7453 36.9284L37.6583 37.0448L37.57 37.1604L37.4804 37.2751L37.3897 37.3891L37.2976 37.5023L37.2044 37.6146L37.1099 37.7261L37.0142 37.8367L36.9173 37.9465L36.8192 38.0554L36.7199 38.1634L36.6195 38.2705L36.518 38.3767L36.4151 38.4819L36.3113 38.5863L36.2061 38.6895L36.0999 38.792L35.9925 38.8934L35.8841 38.9937L35.7746 39.0933L35.6639 39.1916L35.5522 39.289L35.4393 39.3854L35.3255 39.4807L35.2105 39.575L35.0946 39.6681L34.9775 39.7602L34.8594 39.8512L34.7404 39.9411L34.6203 40.0298L34.4992 40.1175L34.3772 40.2042L34.2542 40.2895L34.1302 40.3738L34.0052 40.4568L33.8793 40.5387L33.7525 40.6195L33.6249 40.699L33.4962 40.7772L33.3668 40.8544L33.2363 40.9303L33.1051 41.0048L32.973 41.0782L32.84 41.1504L32.7062 41.2214L32.5716 41.291L32.4362 41.3593L32.3 41.4263L32.1631 41.4921L32.0253 41.5565L31.8868 41.6196L31.7475 41.6814L31.6076 41.7419L31.4669 41.801L31.3255 41.8588L31.1835 41.9153L31.0407 41.9704L30.8973 42.0242L30.7533 42.0765L30.6086 42.1275L30.4633 42.177L30.3174 42.2252L30.1709 42.2719L30.0239 42.3173L29.8763 42.3612L29.7281 42.4036L29.5794 42.4448L29.4301 42.4844L29.2804 42.5225L29.1302 42.5593L28.9795 42.5946L28.8282 42.6284L28.6767 42.6608L28.5246 42.6917L28.3722 42.7211L28.2193 42.7491L28.0661 42.7756L27.9124 42.8005L27.7586 42.8239L27.6042 42.8459L27.4495 42.8663L27.2946 42.8854L27.1394 42.9027L26.9839 42.9187L26.8281 42.9331L26.6721 42.946L26.5159 42.9573L26.3594 42.9671L26.2027 42.9754L26.0459 42.9821L25.8888 42.9873L25.7316 42.991L25.5743 42.9931L25.4168 42.9937L25.2592 42.9928L25.1017 42.9902L24.9439 42.9862L24.7862 42.9805L24.6284 42.9733L24.4705 42.9645L24.3127 42.9543L24.1548 42.9424L23.9971 42.929L23.8393 42.914L23.6815 42.8974L23.5239 42.8793L23.3663 42.8597L23.2088 42.8384L23.0515 42.8156L22.8943 42.7913L22.7372 42.7654L22.5803 42.7379L22.4236 42.7089L22.2671 42.6783L22.1109 42.646L21.9548 42.6124L21.799 42.5771L21.6435 42.5403L21.4882 42.5019L21.3332 42.4619L21.1785 42.4204L21.0242 42.3774L20.8703 42.3329L20.7167 42.2868L20.5634 42.2391L20.4106 42.1899L20.2583 42.1392L20.1062 42.0869L19.9547 42.0331L19.8036 41.9778L19.6529 41.921L19.5028 41.8626L19.3532 41.8028L19.2041 41.7414L19.0555 41.6785L18.9076 41.6142L18.7602 41.5482L18.6133 41.4809L18.4671 41.4121L18.3215 41.3418L18.1765 41.2699L18.0321 41.1967L17.8885 41.122L17.7455 41.0457L17.6032 40.9681L17.4616 40.889L17.3207 40.8084L17.1806 40.7265L17.0412 40.6431L16.9026 40.5582L16.7648 40.4721L16.6278 40.3844L16.4917 40.2954L16.3564 40.2049L16.2219 40.113L16.0882 40.0199L15.9555 39.9254L15.8236 39.8294L15.6927 39.7321L15.5625 39.6335L15.4335 39.5335L15.3054 39.4322L15.1782 39.3295L15.052 39.2256L14.9267 39.1203L14.8025 39.0138L14.6794 38.9059L14.5572 38.7969L14.436 38.6865L14.3161 38.5749L14.1971 38.462L14.0791 38.3479L13.9624 38.2325L13.8468 38.116L13.7323 37.9982L13.6188 37.8793L13.5065 37.7591L13.3956 37.6378L13.2857 37.5153L13.1769 37.3917L13.0695 37.2669L12.9631 37.141L12.8582 37.014L12.7543 36.8857L12.6518 36.7566L12.5506 36.6262L12.4506 36.4948L12.3519 36.3623L12.2544 36.2289L12.1583 36.0943L12.0637 35.9587L11.9702 35.8221L11.8781 35.6845L11.7874 35.546L11.6981 35.4065L11.6101 35.2659L11.5236 35.1245L11.4384 34.9821L11.3547 34.8388L11.2723 34.6945L11.1914 34.5495L11.112 34.4034L11.034 34.2567L10.9575 34.1089L10.8824 33.9604L10.8088 33.811L10.7368 33.6608L10.6662 33.5099L10.5971 33.358L10.5296 33.2056L10.4636 33.0523L10.3991 32.8982L10.3361 32.7435L10.2748 32.5881L10.2149 32.4318L10.1567 32.275L10.1 32.1176L10.0449 31.9593L9.99143 31.8006L9.93954 31.6412L9.88925 31.4812L9.84058 31.3207L9.79353 31.1595L9.74812 30.9978L9.70433 30.8355L9.6622 30.6727L9.62171 30.5095L9.58286 30.3457L9.5457 30.1814L9.51018 30.0167L9.47635 29.8516L9.44419 29.686L9.41371 29.5199L9.38492 29.3535L9.35783 29.1868L9.33244 29.0197L9.30874 28.8522L9.28676 28.6844L9.26649 28.5162L9.24794 28.3478L9.2311 28.1792L9.21598 28.0102L9.2026 27.8409L9.19095 27.6716L9.18102 27.5019L9.17284 27.332L9.1664 27.1621L9.16171 26.9919L9.15876 26.8216L9.15755 26.6511L9.15811 26.4805L9.1604 26.3099L9.16446 26.1392L9.17027 25.9685L9.17784 25.7976L9.18718 25.6268L9.19826 25.4559L9.21112 25.2851L9.22573 25.1142L9.24211 24.9436L9.26026 24.7728L9.28016 24.6023L9.30184 24.4317L9.32527 24.2613L9.35047 24.091L9.37744 23.921L9.40616 23.751L9.43665 23.5813L9.4689 23.4117L9.50291 23.2424L9.53867 23.0734L9.57621 22.9045L9.61549 22.7359L9.65653 22.5677L9.69931 22.3997L9.74385 22.2321L9.79013 22.0648L9.83816 21.8979L9.88794 21.7314L9.93944 21.5652L9.99269 21.3994L10.0477 21.2342L10.1044 21.0693L10.1628 20.905L10.223 20.741L10.2848 20.5776L10.3484 20.4147L10.4137 20.2524L10.4807 20.0906L10.5494 19.9294L10.6198 19.7686L10.6919 19.6086L10.7657 19.4492L10.8411 19.2904L10.9182 19.1322L10.997 18.9748L11.0774 18.818L11.1596 18.662L11.2433 18.5066L11.3287 18.352L11.4157 18.1981L11.5044 18.045L11.5947 17.8927L11.6865 17.7412L11.78 17.5905L11.8752 17.4407L11.9718 17.2917L12.0702 17.1436L12.1699 16.9963L12.2714 16.85L12.3744 16.7045L12.4788 16.56L12.585 16.4165L12.6925 16.2739L12.8017 16.1323L12.9123 15.9917L13.0245 15.8521L13.138 15.7136L13.2532 15.576L13.3698 15.4395L13.4879 15.3041L13.6073 15.1698L13.7284 15.0366L13.8507 14.9045L13.9745 14.7736L14.0998 14.6437L14.2264 14.5151L14.3544 14.3876L14.4838 14.2612L14.6146 14.1362L14.7467 14.0122L14.8802 13.8897L15.015 13.7682L15.1512 13.6481L15.2885 13.5292L15.4272 13.4116L15.5673 13.2953L15.7085 13.1804L15.851 13.0667L15.9949 12.9544L16.1399 12.8434L16.2861 12.7339L16.4335 12.6256L16.5821 12.5188L16.7318 12.4134L16.8829 12.3094L17.035 12.2068L17.1881 12.1057L17.3426 12.006L17.498 11.9078L17.6546 11.811L17.8123 11.7158L17.971 11.622L18.1306 11.5297L18.2915 11.439L18.4533 11.3498L18.616 11.2621L18.7798 11.176L18.9446 11.0915L19.1102 11.0085L19.2769 10.9271L19.4445 10.8473L19.613 10.7691L19.7823 10.6925L19.9526 10.6176L20.1238 10.5443L20.2957 10.4726L20.4685 10.4025L20.642 10.3342L20.8164 10.2675L20.9916 10.2025L21.1676 10.1391L21.3442 10.0775L21.5216 10.0175L21.6997 9.95931L21.8784 9.9028L22.0579 9.84802L22.238 9.79496L22.4189 9.74366L22.6002 9.6941L22.7822 9.64629L22.9647 9.60025L23.1479 9.55598L23.3316 9.51349L23.5158 9.47276L23.7005 9.43384L23.8857 9.3967L24.0715 9.36138L24.2577 9.32785L24.4443 9.29613L24.6313 9.26623L24.8188 9.23815L25.0066 9.2119L25.1947 9.18747L25.2649 9.17906ZM25.3443 15.8789L25.2902 11.3121L25.136 11.3337L24.9702 11.3585L24.8042 11.385L24.6394 11.4131L24.4743 11.4428L24.31 11.4741L24.1461 11.5069L23.9828 11.5413L23.8198 11.5774L23.6572 11.615L23.495 11.6542L23.3336 11.6949L23.1723 11.7372L23.0173 11.7795L22.8522 11.8265L22.6928 11.8734L22.5341 11.9218L22.3762 11.9717L22.2187 12.0232L22.0617 12.0763L21.9055 12.1308L21.7501 12.1867L21.5953 12.2442L21.4411 12.3031L21.2876 12.3636L21.1353 12.4254L20.983 12.4889L20.8318 12.5536L20.6814 12.6198L20.532 12.6874L20.3829 12.7566L20.2347 12.8271L20.0878 12.8988L19.9412 12.9722L19.7961 13.0468L19.6512 13.123L19.5077 13.2002L19.3645 13.2793L19.2226 13.3592L19.0818 13.4406L18.9416 13.5234L18.8025 13.6075L18.6641 13.693L18.5271 13.7795L18.3908 13.8676L18.2557 13.9568L18.1215 14.0472L17.9883 14.139L17.856 14.2322L17.7252 14.3261L17.595 14.4217L17.466 14.5184L17.3381 14.6163L17.2114 14.7152L17.0856 14.8155L16.9611 14.9168L16.8377 15.0193L16.7153 15.1231L16.5944 15.2277L16.4743 15.3337L16.3554 15.4408L16.2378 15.5488L16.1215 15.6579L16.0061 15.7683L15.8923 15.8794L15.7795 15.9917L15.6678 16.1051L15.5576 16.2194L15.4485 16.3349L15.3407 16.4512L15.2342 16.5684L15.1289 16.6867L15.0248 16.8061L14.9225 16.926L14.8211 17.0471L14.721 17.1692L14.6223 17.292L14.525 17.4156L14.4288 17.5404L14.3342 17.6658L14.2408 17.7922L14.1489 17.9193L14.0582 18.0473L13.9691 18.1759L13.8813 18.3054L13.7948 18.4358L13.7097 18.5668L13.6261 18.6985L13.544 18.831L13.4632 18.9644L13.3837 19.0982L13.3059 19.2328L13.2293 19.3681L13.1544 19.5038L13.0807 19.6404L13.0084 19.7777L12.9378 19.9153L12.8686 20.0538L12.8009 20.1928L12.7346 20.3321L12.6698 20.4723L12.6065 20.6128L12.5447 20.7539L12.4843 20.8955L12.4255 21.0376L12.3682 21.1801L12.3123 21.3232L12.2579 21.4667L12.2052 21.6105L12.1538 21.7549L12.1042 21.8995L12.0559 22.0446L12.0092 22.1901L11.9639 22.3359L11.9203 22.482L11.8781 22.6284L11.8376 22.7751L11.7985 22.9222L11.7609 23.0695L11.7249 23.2171L11.6905 23.3649L11.6576 23.5129L11.6262 23.6612L11.5964 23.8096L11.5681 23.9582L11.5414 24.1071L11.5162 24.256L11.4926 24.4051L11.4705 24.5542L11.45 24.7036L11.431 24.8529L11.4136 25.0024L11.3977 25.1519L11.3833 25.3016L11.3705 25.4512L11.3593 25.6007L11.3496 25.7504L11.3414 25.9L11.3347 26.0495L11.3297 26.199L11.3261 26.3484L11.3241 26.4978L11.3236 26.6472L11.3247 26.7963L11.3273 26.9453L11.3314 27.0943L11.337 27.2429L11.3442 27.3916L11.3528 27.54L11.363 27.6881L11.3747 27.8362L11.3879 27.9839L11.4027 28.1314L11.4189 28.2787L11.4366 28.4257L11.4558 28.5725L11.4765 28.7188L11.4987 28.865L11.5224 29.0106L11.5476 29.1561L11.5742 29.3012L11.6023 29.4457L11.6319 29.5901L11.6629 29.734L11.6954 29.8776L11.7293 30.0204L11.7647 30.1631L11.8015 30.3053L11.8397 30.447L11.8793 30.5881L11.9204 30.7288L11.9628 30.869L12.0068 31.0087L12.0521 31.1479L12.0988 31.2864L12.1469 31.4243L12.1963 31.5618L12.2471 31.6986L12.2993 31.8349L12.3528 31.9704L12.4077 32.1054L12.4639 32.2398L12.5215 32.3734L12.5805 32.5064L12.6406 32.6388L12.7022 32.7703L12.7651 32.9012L12.8291 33.0315L12.8946 33.1609L12.9612 33.2897L13.0292 33.4177L13.0985 33.5449L13.1689 33.6713L13.2406 33.7969L13.3135 33.9217L13.3878 34.0457L13.4632 34.169L13.5397 34.2913L13.6175 34.4128L13.6966 34.5336L13.7766 34.6532L13.858 34.7722L13.9404 34.8901L14.0241 35.0072L14.1088 35.1234L14.1947 35.2386L14.2817 35.3529L14.3699 35.4664L14.459 35.5788L14.5493 35.6902L14.6406 35.8007L14.733 35.9103L14.8265 36.0186L14.9211 36.1263L15.0165 36.2327L15.1131 36.3382L15.2106 36.4426L15.3092 36.546L15.4087 36.6483L15.5092 36.7496L15.6106 36.8498L15.7131 36.949L15.8165 37.0471L15.9206 37.144L16.0259 37.2399L16.1319 37.3346L16.2389 37.4282L16.3468 37.5207L16.4555 37.6121L16.5651 37.7024L16.6755 37.7914L16.7867 37.8793L16.8987 37.966L17.0116 38.0517L17.1253 38.1361L17.2395 38.2193L17.3547 38.3013L17.4706 38.3822L17.5872 38.4618L17.7047 38.5403L17.8228 38.6175L17.9415 38.6934L18.061 38.7683L18.1811 38.8418L18.3019 38.9141L18.4234 38.9851L18.5453 39.0548L18.6681 39.1234L18.7913 39.1906L18.9152 39.2567L19.0397 39.3215L19.1646 39.3848L19.2902 39.4471L19.4165 39.508L19.543 39.5676L19.6701 39.6259L19.7978 39.683L19.9258 39.7386L20.0544 39.793L20.1835 39.8462L20.313 39.898L20.4427 39.9484L20.5731 39.9976L20.7038 40.0454L20.8349 40.092L20.9663 40.1372L21.0982 40.1811L21.2303 40.2235L21.3628 40.2648L21.4956 40.3046L21.6287 40.3431L21.762 40.3804L21.8957 40.4162L22.0296 40.4508L22.1637 40.4839L22.2981 40.5157L22.4327 40.5462L22.5675 40.5754L22.7025 40.6031L22.8376 40.6295L22.973 40.6546L23.1083 40.6783L23.244 40.7008L23.3797 40.7217L23.5155 40.7414L23.6514 40.7597L23.7873 40.7768L23.9233 40.7924L24.0593 40.8067L24.1955 40.8195L24.3316 40.8311L24.4678 40.8413L24.6039 40.8503L24.74 40.8577L24.876 40.864L25.0121 40.8688L25.148 40.8724L25.2838 40.8745L25.4196 40.8753L25.5553 40.8748L25.6908 40.873L25.8263 40.8699L25.9615 40.8654L26.0967 40.8596L26.2315 40.8524L26.3663 40.844L26.5007 40.8342L26.6351 40.8231L26.7691 40.8107L26.903 40.797L27.0367 40.782L27.17 40.7656L27.3031 40.748L27.4358 40.7292L27.5683 40.709L27.7004 40.6875L27.8321 40.6648L27.9636 40.6407L28.0947 40.6154L28.2254 40.589L28.3558 40.5611L28.4856 40.532L28.6151 40.5017L28.7442 40.4701L28.8729 40.4373L29.0011 40.4033L29.1289 40.368L29.2562 40.3314L29.383 40.2937L29.5092 40.2549L29.6349 40.2147L29.7603 40.1733L29.885 40.1308L30.0092 40.087L30.1328 40.0421L30.2559 39.996L30.3783 39.9488L30.5001 39.9003L30.6215 39.8507L30.7422 39.8L30.8621 39.7481L30.9816 39.6952L31.1003 39.641L31.2184 39.5857L31.3359 39.5293L31.4524 39.472L31.5687 39.4133L31.684 39.3537L31.7987 39.2929L31.9124 39.2312L32.0256 39.1683L32.1381 39.1044L32.2497 39.0394L32.3607 38.9733L32.4708 38.9063L32.58 38.8382L32.6887 38.7691L32.7963 38.6991L32.9032 38.628L33.0095 38.5558L33.1147 38.4827L33.2189 38.4089L33.3227 38.3337L33.4253 38.2579L33.5271 38.181L33.6282 38.1031L33.7279 38.0245L33.8273 37.9448L33.9256 37.8642L34.0227 37.7829L34.1193 37.7002L34.2147 37.6172L34.3091 37.5333L34.403 37.448L34.4954 37.3625L34.5871 37.2759L34.6779 37.1884L34.7674 37.1002L34.8562 37.0111L34.944 36.9213L35.0308 36.8307L35.1163 36.7393L35.2011 36.6471L35.2849 36.5542L35.3673 36.4608L35.4491 36.3662L35.5296 36.2712L35.609 36.1755L35.6876 36.0788L35.7649 35.9819L35.8412 35.8839L35.9165 35.7855L35.9907 35.6862L36.0638 35.5864L36.1356 35.4862L36.2067 35.3849L36.2764 35.2834L36.3451 35.1812L36.4128 35.0783L36.479 34.9751L36.5444 34.8711L36.6086 34.7665L36.6717 34.6616L36.7335 34.556L36.7945 34.4498L36.854 34.3435L36.9126 34.2362L36.9699 34.1288L37.0259 34.0209L37.0811 33.9122L37.1348 33.8037L37.1876 33.694L37.2389 33.5847L37.2894 33.4742L37.3384 33.3639L37.3865 33.2527L37.4333 33.1416L37.4788 33.0301L37.5232 32.918L37.5665 32.8056L37.6083 32.6932L37.6493 32.5801L37.6888 32.4669L37.7272 32.3535L37.7644 32.2397L37.8005 32.1255L37.8353 32.0112L37.8689 31.8968L37.9013 31.7819L37.9324 31.6671L37.9624 31.5518L37.9911 31.4365L38.0186 31.3211L38.045 31.2052L38.07 31.0894L38.094 30.9735L38.1166 30.8575L38.1381 30.7413L38.1583 30.6247L38.1773 30.5085L38.1952 30.392L38.2117 30.2754L38.2271 30.1589L38.2413 30.0423L38.2543 29.9253L38.266 29.8091L38.2766 29.692L38.286 29.5754L38.294 29.459L38.301 29.3422L38.3066 29.2257L38.3111 29.1093L38.3144 28.9925L38.3164 28.8764L38.3174 28.7599L38.317 28.6437L38.3156 28.5276L38.3129 28.4119L38.309 28.2959L38.3039 28.1802L38.2977 28.065L38.2902 27.9494L38.2816 27.8342L38.2719 27.7196L38.2609 27.6046L38.2487 27.4903L38.2354 27.3758L38.221 27.2618L38.2054 27.148L38.1886 27.0343L38.1706 26.9211L38.1516 26.8083L38.1314 26.6956L38.11 26.5834L38.0874 26.471L38.0638 26.3594L38.0391 26.2482L38.0132 26.1371L37.9861 26.0262L37.9581 25.9163L37.9288 25.8061L37.8986 25.6968L37.8671 25.5876L37.8346 25.4791L37.8011 25.3707L37.7663 25.2628L37.7306 25.1556L37.6939 25.0488L37.6558 24.942L37.6171 24.8363L37.577 24.7307L37.536 24.6259L37.4939 24.5213L37.4508 24.4172L37.4067 24.314L37.3614 24.211L37.3153 24.1087L37.2682 24.0071L37.22 23.9057L37.1707 23.8049L37.1207 23.705L37.0694 23.6054L37.0174 23.5067L36.9643 23.4086L36.9102 23.3107L36.8554 23.2139L36.7994 23.1174L36.7425 23.0218L36.6846 22.9266L36.6261 22.8324L36.5663 22.7384L36.5059 22.6455L36.4445 22.5532L36.3822 22.4616L36.3188 22.3705L36.2548 22.2804L36.19 22.191L36.1241 22.102L36.0575 22.0141L35.9899 21.9268L35.9218 21.8404L35.8526 21.7544L35.7826 21.6695L35.7118 21.5852L35.6403 21.5017L35.5681 21.4192L35.4949 21.3371L35.4211 21.2562L35.3464 21.1758L35.2713 21.0966L35.1949 21.0178L35.1182 20.9402L35.0404 20.863L34.9622 20.787L34.8834 20.7118L34.8037 20.6374L34.7232 20.5638L34.6422 20.4912L34.5605 20.4195L34.4779 20.3483L34.3953 20.2786L34.3115 20.2092L34.2272 20.141L34.1424 20.0738L34.0568 20.0071L33.9708 19.9417L33.8844 19.8772L33.7969 19.8134L33.7089 19.7504L33.6208 19.6889L33.5316 19.6278L33.4425 19.5681L33.3526 19.509L33.262 19.4508L33.1709 19.3936L33.0797 19.3376L32.9875 19.2823L32.8952 19.2282L32.8021 19.1748L32.7091 19.1227L32.6152 19.0714L32.5209 19.0209L32.4263 18.9715L32.3314 18.9233L32.2359 18.8758L32.1399 18.8293L32.0438 18.7839L31.9475 18.7396L31.8501 18.696L31.7532 18.6537L31.6556 18.6123L31.5575 18.5718L31.4593 18.5325L31.361 18.4942L31.2622 18.4568L31.1628 18.4203L31.0636 18.3851L30.9639 18.3507L30.8639 18.3174L30.764 18.2851L30.6637 18.2539L30.5634 18.2236L30.4622 18.1943L30.3614 18.1662L30.2603 18.139L30.1591 18.1129L30.0577 18.0877L29.9558 18.0636L29.8542 18.0406L29.7525 18.0186L29.6504 17.9976L29.5481 17.9775L29.4463 17.9587L29.3438 17.9407L29.2416 17.9238L29.1389 17.9079L29.0368 17.8931L28.9339 17.8791L28.8316 17.8665L28.7291 17.8547L28.6265 17.8439L28.524 17.8342L28.4213 17.8255L28.3191 17.8178L28.2163 17.8112L28.1139 17.8055L28.0118 17.8009L27.909 17.7972L27.807 17.7946L27.7049 17.7931L27.6029 17.7925L27.5332 17.7928L27.586 22.2546L27.6176 22.2547L27.6762 22.2555L27.7349 22.257L27.7938 22.2588L27.8526 22.2616L27.9116 22.2648L27.9706 22.2685L28.0297 22.273L28.0888 22.2781L28.148 22.2838L28.2072 22.29L28.2664 22.2969L28.3257 22.3045L28.3849 22.3126L28.4442 22.3214L28.5036 22.3308L28.5629 22.3409L28.6221 22.3515L28.6814 22.3628L28.7406 22.3747L28.7999 22.3873L28.8591 22.4004L28.9183 22.4143L28.9772 22.4287L29.0363 22.4437L29.0953 22.4594L29.1542 22.4757L29.213 22.4926L29.2718 22.5102L29.3304 22.5284L29.3889 22.5473L29.4474 22.5668L29.5056 22.5869L29.5639 22.6076L29.6219 22.629L29.6798 22.651L29.7376 22.6735L29.7953 22.6968L29.8527 22.7207L29.9101 22.7452L29.9673 22.7703L30.0242 22.7961L30.0811 22.8225L30.1377 22.8495L30.194 22.8771L30.2503 22.9053L30.3062 22.9343L30.362 22.9637L30.4175 22.9938L30.4728 23.0245L30.5279 23.0559L30.5827 23.0878L30.6372 23.1203L30.6916 23.1535L30.7456 23.1873L30.7994 23.2217L30.8528 23.2565L30.906 23.2921L30.9589 23.3284L31.0115 23.3651L31.0637 23.4025L31.1157 23.4404L31.1674 23.479L31.2187 23.5181L31.2696 23.5578L31.3203 23.5981L31.3705 23.639L31.4204 23.6803L31.4701 23.7224L31.5192 23.765L31.568 23.8081L31.6165 23.8518L31.6645 23.8961L31.7121 23.9409L31.7592 23.9863L31.8062 24.0323L31.8525 24.0787L31.8985 24.1258L31.9441 24.1733L31.9891 24.2214L32.0338 24.2701L32.078 24.3192L32.1218 24.3689L32.1651 24.4191L32.2079 24.4698L32.2503 24.521L32.2921 24.5727L32.3335 24.625L32.3744 24.6777L32.4148 24.731L32.4547 24.7846L32.4941 24.8389L32.5329 24.8935L32.5713 24.9487L32.6091 25.0043L32.6463 25.0605L32.6831 25.117L32.7194 25.174L32.7549 25.2315L32.79 25.2894L32.8245 25.3478L32.8585 25.4065L32.8919 25.4657L32.9246 25.5254L32.9569 25.5854L32.9886 25.6459L33.0195 25.7068L33.05 25.768L33.0798 25.8297L33.109 25.8919L33.1376 25.9543L33.1656 26.0171L33.193 26.0804L33.2197 26.144L33.2459 26.2079L33.2713 26.2722L33.2961 26.3368L33.3203 26.4018L33.3438 26.4672L33.3666 26.5329L33.3889 26.5988L33.4104 26.6651L33.4312 26.7318L33.4514 26.7987L33.4709 26.8659L33.4897 26.9335L33.5079 27.0012L33.5254 27.0693L33.542 27.1377L33.5581 27.2064L33.5735 27.2752L33.5881 27.3444L33.6021 27.4138L33.6152 27.4833L33.6277 27.5533L33.6395 27.6234L33.6506 27.6936L33.6609 27.7641L33.6705 27.8348L33.6793 27.9057L33.6875 27.9768L33.6949 28.0481L33.7016 28.1195L33.7075 28.1911L33.7127 28.263L33.717 28.3348L33.7207 28.4069L33.7235 28.4791L33.7258 28.5514L33.7271 28.6239L33.7278 28.6964L33.7276 28.769L33.7267 28.8418L33.7251 28.9147L33.7226 28.9876L33.7194 29.0607L33.7154 29.1337L33.7107 29.2069L33.7051 29.28L33.6987 29.3533L33.6916 29.4266L33.6838 29.4998L33.6751 29.5731L33.6656 29.6465L33.6555 29.7199L33.6445 29.7932L33.6327 29.8664L33.62 29.9397L33.6067 30.013L33.5925 30.0863L33.5776 30.1594L33.5618 30.2326L33.5452 30.3056L33.528 30.3786L33.5098 30.4516L33.4908 30.5245L33.4712 30.5972L33.4507 30.6698L33.4294 30.7423L33.4073 30.8147L33.3845 30.8871L33.3608 30.9592L33.3364 31.0312L33.3112 31.1031L33.2851 31.1747L33.2583 31.2463L33.2307 31.3176L33.2024 31.3889L33.1732 31.4598L33.1433 31.5306L33.1125 31.6011L33.081 31.6716L33.0487 31.7416L33.0156 31.8115L32.9817 31.8812L32.9472 31.9506L32.9118 32.0197L32.8756 32.0886L32.8386 32.1572L32.8009 32.2255L32.7625 32.2935L32.7233 32.3613L32.6832 32.4287L32.6425 32.4958L32.6009 32.5626L32.5588 32.6291L32.5157 32.6951L32.4719 32.761L32.4274 32.8263L32.3822 32.8914L32.3362 32.9561L32.2894 33.0204L32.242 33.0843L32.1938 33.1478L32.1449 33.2109L32.0952 33.2736L32.0449 33.3359L31.9938 33.3977L31.9421 33.4592L31.8896 33.5202L31.8363 33.5807L31.7824 33.6407L31.7278 33.7004L31.6725 33.7595L31.6166 33.8181L31.5599 33.8764L31.5026 33.934L31.4445 33.9911L31.3859 34.0478L31.3265 34.104L31.2664 34.1595L31.2058 34.2146L31.1445 34.2692L31.0825 34.3232L31.0199 34.3766L30.9567 34.4294L30.8927 34.4818L30.8282 34.5336L30.7631 34.5846L30.6974 34.6352L30.6311 34.6852L30.5641 34.7346L30.4966 34.7833L30.4284 34.8314L30.3597 34.879L30.2904 34.9258L30.2205 34.9721L30.1501 35.0176L30.0791 35.0627L30.0074 35.107L29.9353 35.1506L29.8627 35.1935L29.7895 35.2358L29.7158 35.2774L29.6414 35.3183L29.5667 35.3586L29.4915 35.3981L29.4157 35.4369L29.3394 35.475L29.2627 35.5125L29.1854 35.5491L29.1076 35.585L29.0295 35.6202L28.9508 35.6546L28.8717 35.6884L28.7922 35.7214L28.7122 35.7536L28.6317 35.785L28.5508 35.8157L28.4695 35.8456L28.3879 35.8748L28.3059 35.9032L28.2234 35.9307L28.1405 35.9575L28.0573 35.9834L27.9738 36.0086L27.8897 36.0331L27.8055 36.0566L27.7209 36.0794L27.6359 36.1012L27.5506 36.1224L27.4649 36.1426L27.379 36.1621L27.2927 36.1807L27.2062 36.1985L27.1193 36.2154L27.0322 36.2315L26.9449 36.2467L26.8572 36.2611L26.7694 36.2746L26.6812 36.2873L26.5929 36.2991L26.5043 36.3101L26.4155 36.3201L26.3265 36.3292L26.2373 36.3376L26.148 36.3449L26.0584 36.3516L25.9686 36.3571L25.8788 36.362L25.7887 36.3659L25.6985 36.3688L25.6081 36.3708L25.5177 36.372L25.4272 36.3724L25.3365 36.3718L25.2458 36.3702L25.1549 36.3677L25.064 36.3644L24.973 36.3602L24.8819 36.355L24.7908 36.349L24.6997 36.342L24.6085 36.3341L24.5173 36.3252L24.4262 36.3155L24.3349 36.3048L24.2438 36.2932L24.1526 36.2806L24.0615 36.2673L23.9704 36.2529L23.8794 36.2376L23.7884 36.2214L23.6975 36.2043L23.6066 36.1863L23.5158 36.1673L23.4252 36.1475L23.3347 36.1265L23.2442 36.1048L23.1538 36.0822L23.0637 36.0586L22.9737 36.034L22.8838 36.0086L22.7942 35.9822L22.7046 35.9549L22.6153 35.9267L22.5262 35.8976L22.4372 35.8676L22.3485 35.8366L22.26 35.8047L22.1717 35.7719L22.0838 35.7382L21.996 35.7036L21.9086 35.668L21.8213 35.6316L21.7345 35.5942L21.6478 35.556L21.5615 35.5168L21.4755 35.4768L21.3897 35.4358L21.3044 35.3939L21.2194 35.3511L21.1348 35.3075L21.0506 35.263L20.9666 35.2176L20.8831 35.1713L20.8 35.1241L20.7172 35.076L20.6349 35.0271L20.553 34.9773L20.4716 34.9266L20.3905 34.8751L20.3099 34.8228L20.2298 34.7695L20.1501 34.7153L20.0711 34.6604L19.9924 34.6046L19.9141 34.548L19.8365 34.4904L19.7593 34.4322L19.6827 34.3731L19.6066 34.313L19.5311 34.2523L19.456 34.1907L19.3816 34.1283L19.3077 34.0651L19.2345 34.001L19.1618 33.9363L19.0897 33.8707L19.0182 33.8043L18.9473 33.7371L18.8771 33.6692L18.8073 33.6005L18.7384 33.531L18.6701 33.4608L18.6024 33.3898L18.5354 33.3182L18.4691 33.2456L18.4035 33.1725L18.3385 33.0986L18.2743 33.0239L18.2108 32.9486L18.1479 32.8725L18.0858 32.7957L18.0245 32.7183L17.9639 32.6402L17.904 32.5613L17.8449 32.4818L17.7866 32.4017L17.7291 32.3208L17.6722 32.2393L17.6162 32.1572L17.561 32.0744L17.5066 31.991L17.4531 31.907L17.4003 31.8224L17.3484 31.7371L17.2972 31.6512L17.247 31.5648L17.1976 31.4777L17.149 31.3902L17.1013 31.302L17.0545 31.2132L17.0085 31.1239L16.9634 31.0341L16.9192 30.9438L16.8759 30.8528L16.8335 30.7614L16.792 30.6695L16.7515 30.5771L16.7117 30.4841L16.673 30.3907L16.6352 30.2967L16.5983 30.2024L16.5624 30.1075L16.5275 30.0123L16.4935 29.9166L16.4604 29.8205L16.4282 29.7239L16.3971 29.6269L16.367 29.5295L16.3378 29.4318L16.3096 29.3336L16.2824 29.235L16.2563 29.1361L16.231 29.0368L16.2069 28.9372L16.1837 28.8373L16.1615 28.737L16.1403 28.6364L16.1202 28.5355L16.1011 28.4343L16.083 28.3328L16.066 28.231L16.05 28.1291L16.035 28.0267L16.0211 27.9242L16.0083 27.8214L15.9965 27.7185L15.9858 27.6152L15.9761 27.5118L15.9674 27.4081L15.9599 27.3044L15.9534 27.2004L15.9479 27.0963L15.9436 26.992L15.9403 26.8876L15.9381 26.783L15.9371 26.6784L15.9369 26.5735L15.938 26.4686L15.9403 26.3637L15.9434 26.2586L15.9478 26.1534L15.9533 26.0482L15.9598 25.943L15.9673 25.8377L15.9761 25.7324L15.9859 25.6271L15.9967 25.5218L16.0088 25.4165L16.0219 25.3112L16.0361 25.2061L16.0515 25.1009L16.0679 24.9957L16.0855 24.8906L16.1041 24.7856L16.1238 24.6806L16.1447 24.5758L16.1667 24.4711L16.1897 24.3665L16.2138 24.262L16.2391 24.1578L16.2655 24.0536L16.293 23.9496L16.3216 23.8458L16.3513 23.7421L16.382 23.6386L16.4139 23.5354L16.4469 23.4324L16.4809 23.3296L16.5162 23.2271L16.5524 23.1248L16.5898 23.0228L16.6282 22.921L16.6678 22.8196L16.7084 22.7185L16.7502 22.6175L16.7929 22.5171L16.8368 22.4169L16.8818 22.317L16.9278 22.2175L16.9749 22.1183L17.023 22.0196L17.0723 21.9212L17.1225 21.8232L17.174 21.7257L17.2263 21.6286L17.2798 21.5319L17.3343 21.4356L17.3899 21.3397L17.4465 21.2445L17.5042 21.1496L17.5628 21.0552L17.6226 20.9613L17.6833 20.8678L17.745 20.775L17.8078 20.6827L17.8716 20.5908L17.9363 20.4996L18.0022 20.4089L18.0689 20.3188L18.1367 20.2292L18.2054 20.1403L18.2752 20.0519L18.346 19.9642L18.4177 19.877L18.4903 19.7906L18.5639 19.7047L18.6385 19.6195L18.714 19.535L18.7904 19.4511L18.8679 19.368L18.9462 19.2855L19.0255 19.2037L19.1056 19.1227L19.1867 19.0423L19.2687 18.9626L19.3516 18.8838L19.4354 18.8057L19.52 18.7283L19.6054 18.6517L19.6918 18.5758L19.7792 18.5009L19.8672 18.4266L19.9562 18.3532L20.0459 18.2806L20.1365 18.2088L20.2279 18.1378L20.3202 18.0678L20.4132 17.9985L20.507 17.9301L20.6017 17.8626L20.6971 17.7959L20.7933 17.7301L20.8903 17.6652L20.9879 17.6013L21.0864 17.5383L21.1856 17.4761L21.2855 17.4149L21.3862 17.3547L21.4875 17.2953L21.5896 17.2369L21.6923 17.1795L21.7957 17.123L21.8998 17.0676L22.0045 17.0131L22.1099 16.9596L22.2159 16.9071L22.3227 16.8556L22.43 16.8051L22.5379 16.7556L22.6464 16.7071L22.7554 16.6597L22.8652 16.6133L22.9755 16.5679L23.0862 16.5237L23.1977 16.4805L23.3096 16.4383L23.422 16.3971L23.535 16.3572L23.6485 16.3182L23.7625 16.2804L23.877 16.2436L23.9919 16.2079L24.1073 16.1734L24.2231 16.14L24.3394 16.1077L24.4562 16.0765L24.5733 16.0464L24.6909 16.0174L24.8089 15.9897L24.9273 15.9631L25.0459 15.9375L25.1651 15.9132L25.2844 15.89L25.3443 15.8789ZM26.812 24.4593L25.4499 24.7847L25.3699 18.0372L25.3057 18.0516L25.209 18.0744L25.1125 18.0981L25.0166 18.1227L24.9209 18.1482L24.8258 18.1747L24.7306 18.2023L24.6364 18.2304L24.542 18.2597L24.4488 18.2896L24.3553 18.3207L24.2624 18.3526L24.17 18.3853L24.0779 18.4189L23.9867 18.4533L23.8955 18.4887L23.8049 18.5249L23.7148 18.5619L23.6249 18.5999L23.5362 18.6385L23.4474 18.6782L23.3595 18.7185L23.2717 18.7598L23.1847 18.8018L23.0979 18.8447L23.0121 18.8883L22.9267 18.9327L22.8418 18.978L22.7576 19.024L22.6738 19.0708L22.5906 19.1184L22.5083 19.1666L22.426 19.2159L22.3446 19.2657L22.264 19.3162L22.1839 19.3675L22.1043 19.4196L22.0254 19.4725L21.9472 19.526L21.8696 19.5801L21.7927 19.635L21.7163 19.6906L21.6406 19.747L21.5657 19.804L21.4914 19.8616L21.4179 19.9198L21.3451 19.9788L21.2727 20.0384L21.2011 20.0988L21.1304 20.1596L21.0604 20.2212L20.991 20.2832L20.9223 20.346L20.8544 20.4094L20.7872 20.4734L20.7208 20.5378L20.655 20.603L20.5901 20.6686L20.5259 20.7349L20.4626 20.8015L20.3997 20.8691L20.3379 20.9369L20.2768 21.0053L20.2164 21.0743L20.157 21.1436L20.0981 21.2136L20.0403 21.2838L19.983 21.355L19.9268 21.4263L19.8711 21.4982L19.8164 21.5707L19.7625 21.6434L19.7093 21.7165L19.6571 21.7901L19.6055 21.8644L19.5548 21.9388L19.5051 22.0139L19.4562 22.089L19.4081 22.1647L19.3607 22.2409L19.3143 22.3172L19.2686 22.3943L19.2239 22.4712L19.18 22.5489L19.1368 22.6267L19.0948 22.7049L19.0534 22.7833L19.013 22.8622L18.9733 22.9415L18.9346 23.0206L18.8967 23.1005L18.8597 23.1804L18.8237 23.2607L18.7883 23.3412L18.7539 23.422L18.7205 23.5028L18.6879 23.5841L18.6562 23.6656L18.6252 23.7472L18.5953 23.8289L18.5663 23.911L18.538 23.9933L18.5107 24.0757L18.4842 24.1581L18.4587 24.241L18.434 24.3238L18.4104 24.4067L18.3874 24.4899L18.3653 24.5732L18.3443 24.6565L18.3241 24.74L18.3047 24.8235L18.2863 24.9072L18.2688 24.991L18.2521 25.0746L18.2363 25.1584L18.2214 25.2425L18.2075 25.3263L18.1943 25.4102L18.182 25.4943L18.1707 25.5781L18.1603 25.6622L18.1507 25.746L18.142 25.8301L18.1342 25.9142L18.1272 25.998L18.1212 26.0819L18.116 26.1658L18.1116 26.2495L18.1082 26.3332L18.1056 26.4167L18.1039 26.5004L18.103 26.5838L18.1031 26.6671L18.1039 26.7503L18.1057 26.8335L18.1083 26.9165L18.1117 26.9994L18.116 27.0821L18.1212 27.1646L18.1272 27.2469L18.1341 27.3292L18.1417 27.4112L18.1503 27.4932L18.1596 27.5747L18.1698 27.6563L18.1807 27.7374L18.1927 27.8186L18.2053 27.8993L18.2188 27.9799L18.2331 28.0604L18.2482 28.1404L18.2642 28.2203L18.2808 28.2997L18.2985 28.3791L18.3168 28.4581L18.3359 28.5369L18.3558 28.6151L18.3766 28.6935L18.398 28.7711L18.4202 28.8488L18.4432 28.9258L18.467 29.0028L18.4916 29.0792L18.5169 29.1552L18.543 29.2312L18.5698 29.3066L18.5973 29.3815L18.6256 29.4564L18.6547 29.5307L18.6844 29.6046L18.7149 29.6781L18.746 29.7511L18.778 29.8239L18.8107 29.8962L18.844 29.9681L18.878 30.0395L18.9126 30.1104L18.9482 30.1812L18.9841 30.2511L19.0209 30.3207L19.0584 30.39L19.0965 30.4587L19.1353 30.527L19.1747 30.5948L19.2147 30.6619L19.2555 30.7288L19.2967 30.7951L19.3387 30.8608L19.3814 30.9262L19.4245 30.9909L19.4683 31.0554L19.5127 31.1188L19.5577 31.1822L19.6033 31.2448L19.6494 31.3068L19.6963 31.3685L19.7436 31.4295L19.7914 31.4899L19.8399 31.5498L19.8889 31.6093L19.9383 31.6679L19.9886 31.7262L20.0392 31.7838L20.0902 31.8408L20.1421 31.8973L20.1941 31.9529L20.2468 32.0084L20.3 32.063L20.3535 32.117L20.4078 32.1704L20.4624 32.2232L20.5174 32.2755L20.573 32.327L20.629 32.3779L20.6855 32.4283L20.7423 32.4779L20.7997 32.527L20.8573 32.5754L20.9155 32.6232L20.9741 32.6703L21.0332 32.7168L21.0924 32.7625L21.1522 32.8076L21.2123 32.8522L21.2729 32.896L21.3337 32.9392L21.3949 32.9817L21.4565 33.0236L21.5184 33.0647L21.5806 33.1051L21.6431 33.1449L21.7062 33.1842L21.7693 33.2225L21.8328 33.2603L21.8967 33.2974L21.9607 33.3337L22.025 33.3694L22.0898 33.4045L22.1547 33.4387L22.2198 33.4723L22.2852 33.5051L22.351 33.5374L22.4167 33.5688L22.483 33.5997L22.5493 33.6298L22.6158 33.6591L22.6826 33.6879L22.7497 33.7159L22.8167 33.7432L22.884 33.7698L22.9515 33.7955L23.0193 33.8207L23.0869 33.8452L23.1551 33.8689L23.2231 33.8918L23.2913 33.9142L23.3597 33.9358L23.4283 33.9567L23.4968 33.9768L23.5655 33.9963L23.6344 34.015L23.7033 34.0331L23.7722 34.0503L23.8412 34.067L23.9102 34.0828L23.9793 34.0979L24.0486 34.1125L24.1178 34.1262L24.1871 34.1393L24.2564 34.1516L24.3257 34.1633L24.3951 34.1742L24.4645 34.1845L24.5336 34.1939L24.603 34.2027L24.6722 34.2108L24.7416 34.2183L24.8109 34.2249L24.8801 34.2309L24.9493 34.2362L25.0183 34.2408L25.0874 34.2447L25.1563 34.2479L25.2251 34.2505L25.2941 34.2523L25.3627 34.2535L25.4312 34.2539L25.4997 34.2537L25.5681 34.2529L25.6365 34.2512L25.7047 34.249L25.7725 34.2461L25.8403 34.2425L25.9083 34.2382L25.9757 34.2333L26.0431 34.2277L26.1103 34.2214L26.1774 34.2146L26.2443 34.2069L26.3108 34.1988L26.3775 34.1899L26.4437 34.1803L26.5096 34.1702L26.5757 34.1594L26.6413 34.1479L26.7066 34.1359L26.7719 34.1231L26.8369 34.1098L26.9014 34.0958L26.9657 34.0813L27.03 34.066L27.0939 34.0502L27.1575 34.0339L27.2208 34.0169L27.2838 33.9993L27.3468 33.9809L27.4092 33.9622L27.4711 33.9428L27.5333 33.9227L27.5948 33.9021L27.656 33.8811L27.7168 33.8593L27.7773 33.837L27.8377 33.8141L27.8977 33.7907L27.9571 33.7667L28.0163 33.7422L28.0752 33.717L28.1338 33.6914L28.1917 33.6653L28.2496 33.6386L28.3069 33.6114L28.3638 33.5836L28.4205 33.5554L28.4765 33.5267L28.5324 33.4973L28.5878 33.4674L28.6428 33.4372L28.6973 33.4065L28.7515 33.3751L28.8053 33.3434L28.8585 33.3111L28.9113 33.2784L28.9638 33.2451L29.0158 33.2116L29.0674 33.1774L29.1185 33.1429L29.1692 33.1078L29.2194 33.0724L29.269 33.0366L29.3183 33.0002L29.3671 32.9634L29.4155 32.9262L29.4633 32.8886L29.5108 32.8505L29.5576 32.8122L29.6041 32.7735L29.6499 32.7342L29.6953 32.6947L29.7403 32.6547L29.7848 32.6143L29.8287 32.5736L29.872 32.5326L29.915 32.4911L29.9574 32.4493L29.9994 32.4072L30.0408 32.3648L30.0815 32.3219L30.1218 32.2789L30.1618 32.2353L30.2009 32.1917L30.2398 32.1475L30.278 32.103L30.3155 32.0585L30.3529 32.0133L30.3893 31.9682L30.4254 31.9226L30.461 31.8768L30.4959 31.8307L30.5304 31.7843L30.5642 31.7379L30.5975 31.6908L30.6304 31.6437L30.6625 31.5965L30.6942 31.5488L30.7254 31.501L30.7558 31.453L30.7858 31.4048L30.8152 31.3564L30.844 31.3077L30.8724 31.2589L30.9001 31.2098L30.9272 31.1607L30.9538 31.1111L30.9798 31.0617L31.0052 31.012L31.0302 30.9621L31.0545 30.9121L31.0783 30.8618L31.1014 30.8115L31.124 30.7611L31.146 30.7106L31.1675 30.6598L31.1883 30.6091L31.2088 30.5579L31.2284 30.5072L31.2476 30.4557L31.2661 30.405L31.2842 30.3535L31.3016 30.3019L31.3184 30.2507L31.3347 30.1991L31.3505 30.1477L31.3657 30.0957L31.3801 30.0444L31.3943 29.9923L31.4077 29.941L31.4205 29.889L31.4328 29.837L31.4445 29.7854L31.4556 29.7338L31.4663 29.6816L31.4763 29.63L31.4858 29.5778L31.4946 29.5263L31.503 29.4746L31.5108 29.4227L31.518 29.3708L31.5247 29.319L31.5308 29.2675L31.5364 29.2161L31.5413 29.1642L31.5458 29.1128L31.5497 29.0613L31.553 29.0099L31.5559 28.9586L31.5581 28.9074L31.5598 28.8565L31.5609 28.8052L31.5616 28.754L31.5618 28.7033L31.5613 28.6526L31.5603 28.602L31.5588 28.5516L31.5568 28.5009L31.5542 28.4511L31.5511 28.4003L31.5476 28.3508L31.5434 28.301L31.5388 28.2509L31.5336 28.2014L31.5281 28.1523L31.5218 28.1026L31.5152 28.0539L31.508 28.0048L31.5004 27.9565L31.4922 27.9077L31.4835 27.8592L31.4744 27.8113L31.4649 27.7634L31.4547 27.7154L31.4441 27.668L31.4331 27.6206L31.4215 27.5736L31.4095 27.5269L31.3969 27.4799L31.3841 27.4338L31.3707 27.3872L31.3568 27.3415L31.3425 27.2958L31.3278 27.2504L31.3125 27.2051L31.2968 27.16L31.2808 27.1155L31.2643 27.0712L31.2473 27.0268L31.2299 26.983L31.2121 26.9391L31.194 26.8962L31.1752 26.8528L31.1563 26.8101L31.1368 26.7678L31.1169 26.7255L31.0967 26.6837L31.076 26.6421L31.055 26.6007L31.0336 26.5598L31.0117 26.5192L30.9896 26.4789L30.9671 26.4388L30.944 26.3991L30.9209 26.3598L30.8972 26.3208L30.8731 26.2819L30.8488 26.2437L30.8241 26.2056L30.799 26.1679L30.7736 26.1305L30.748 26.0936L30.7218 26.0569L30.6955 26.0206L30.6688 25.9846L30.6417 25.9491L30.6145 25.9139L30.5868 25.8789L30.5589 25.8445L30.5306 25.8103L30.5021 25.7765L30.4733 25.7431L30.4444 25.7101L30.4149 25.6775L30.3853 25.6452L30.3554 25.6132L30.3252 25.5818L30.2947 25.5507L30.264 25.5198L30.2332 25.4896L30.202 25.4597L30.1706 25.4301L30.1387 25.4008L30.1071 25.3721L30.0749 25.3436L30.0427 25.3157L30.01 25.2881L29.9773 25.261L29.9443 25.2342L29.9112 25.2078L29.8779 25.1818L29.8443 25.1562L29.8107 25.1311L29.7767 25.1063L29.7426 25.082L29.7084 25.0581L29.674 25.0345L29.6395 25.0114L29.6048 24.9887L29.5698 24.9664L29.5349 24.9445L29.4996 24.923L29.4644 24.902L29.4291 24.8814L29.3935 24.8612L29.3577 24.8414L29.322 24.822L29.2862 24.8029L29.2501 24.7844L29.2142 24.7663L29.1778 24.7485L29.1416 24.7312L29.1052 24.7144L29.0688 24.6979L29.0323 24.6818L28.9956 24.6661L28.9592 24.651L28.9223 24.6362L28.8854 24.6218L28.8487 24.6078L28.8118 24.5942L28.7749 24.5811L28.7379 24.5684L28.7009 24.5559L28.6641 24.5441L28.627 24.5325L28.5898 24.5214L28.553 24.5108L28.5156 24.5005L28.4788 24.4907L28.4416 24.4813L28.4045 24.4722L28.3674 24.4635L28.3304 24.4553L28.2933 24.4475L28.2563 24.44L28.2195 24.4329L28.1826 24.4263L28.1455 24.42L28.1088 24.4142L28.0717 24.4088L28.0352 24.4037L27.9983 24.399L27.9617 24.3947L27.9253 24.3908L27.8887 24.3874L27.8523 24.3842L27.8159 24.3815L27.7796 24.3791L27.7433 24.3771L27.7071 24.3756L27.6713 24.3744L27.6353 24.3735L27.5995 24.373L27.5637 24.3729L27.5281 24.3732L27.4925 24.3738L27.4572 24.3748L27.4219 24.3762L27.3869 24.3778L27.3517 24.38L27.3169 24.3823L27.2822 24.3851L27.2475 24.3882L27.2131 24.3917L27.1786 24.3955L27.1446 24.3996L27.1106 24.4041L27.0768 24.4089L27.043 24.4141L27.0095 24.4196L26.9761 24.4254L26.9431 24.4315L26.9099 24.438L26.8772 24.4447L26.8444 24.4518L26.812 24.4593Z" fill="#1DAEFF"/>
</svg>
